<?xml version="1.0" encoding="UTF-8" standalone="no"?>
<!DOCTYPE svg PUBLIC "-//W3C//DTD SVG 20010904//EN"
              "http://www.w3.org/TR/2001/REC-SVG-20010904/DTD/svg10.dtd">

<svg xmlns="http://www.w3.org/2000/svg"
     width="4.94444in" height="0.844444in"
     viewBox="0 0 445 76">
  <path id="Selection"
        fill="white" stroke="white" stroke-width="1"
        d="M 79.00,3.25
           C 79.00,3.25 95.25,48.25 95.25,48.25
             95.25,48.25 107.50,17.00 107.50,17.00
             108.75,13.80 110.92,6.38 113.56,4.49
             115.74,2.94 120.12,3.25 122.75,3.25
             139.29,3.22 166.61,-0.11 178.87,12.12
             183.99,17.24 185.24,21.81 187.75,28.25
             187.75,28.25 187.75,3.25 187.75,3.25
             195.69,3.25 219.17,2.24 225.25,4.79
             234.91,8.85 238.85,21.70 232.74,30.49
             231.02,32.96 228.92,34.14 226.50,35.75
             236.46,40.34 235.56,42.96 240.25,52.00
             240.25,52.00 257.75,3.25 257.75,3.25
             257.75,3.25 269.62,4.52 269.62,4.52
             269.62,4.52 276.44,18.25 276.44,18.25
             276.44,18.25 289.00,50.75 289.00,50.75
             289.00,50.75 289.00,3.25 289.00,3.25
             298.82,3.25 318.32,1.64 326.45,6.26
             329.90,8.24 331.47,10.34 334.00,13.25
             334.00,13.25 334.00,3.25 334.00,3.25
             344.66,3.25 365.49,1.14 373.76,7.81
             383.49,15.64 382.62,36.34 371.45,42.74
             364.26,46.85 353.42,45.75 345.25,45.75
             345.25,45.75 345.25,73.25 345.25,73.25
             345.25,73.25 334.00,73.25 334.00,73.25
             334.00,73.25 332.75,35.75 332.75,35.75
             325.66,48.21 312.60,45.75 300.25,45.75
             300.25,45.75 300.25,73.25 300.25,73.25
             297.40,73.25 290.37,73.54 288.02,72.50
             283.27,70.40 280.99,59.27 280.25,54.50
             280.25,54.50 259.00,54.50 259.00,54.50
             259.00,54.50 250.77,55.77 250.77,55.77
             250.77,55.77 242.11,71.97 242.11,71.97
             242.11,71.97 231.50,73.25 231.50,73.25
             231.50,73.25 232.75,68.25 232.75,68.25
             232.75,68.25 224.00,72.59 224.00,72.59
             224.00,72.59 187.75,73.25 187.75,73.25
             187.75,73.25 186.50,48.25 186.50,48.25
             183.85,73.20 160.54,73.25 141.50,73.25
             141.50,73.25 117.75,73.25 117.75,73.25
             117.75,73.25 117.75,38.25 117.75,38.25
             117.75,38.25 116.50,17.00 116.50,17.00
             116.50,17.00 101.50,59.50 101.50,59.50
             101.50,59.50 90.87,58.22 90.87,58.22
             90.87,58.22 84.72,45.75 84.72,45.75
             84.72,45.75 72.75,15.75 72.75,15.75
             72.75,15.75 72.75,73.25 72.75,73.25
             72.75,73.25 62.75,73.25 62.75,73.25
             62.75,73.25 62.75,3.25 62.75,3.25
             62.75,3.25 79.00,3.25 79.00,3.25 Z
           M 168.87,59.94
           C 179.49,51.71 179.49,24.79 168.87,16.56
             161.85,11.11 147.66,10.75 139.00,10.75
             139.00,10.75 139.00,65.75 139.00,65.75
             147.66,65.75 161.85,65.39 168.87,59.94 Z
           M 220.11,29.52
           C 226.42,25.66 226.42,17.09 220.11,13.22
             215.22,10.24 204.75,10.75 199.00,10.75
             199.00,10.75 199.00,32.00 199.00,32.00
             204.75,32.00 215.22,32.51 220.11,29.52 Z
           M 319.96,34.85
           C 325.97,30.12 325.41,17.43 318.86,13.43
             313.92,10.40 305.89,10.75 300.25,10.75
             300.25,10.75 300.25,38.25 300.25,38.25
             306.14,38.25 315.11,38.65 319.96,34.85 Z
           M 364.96,34.85
           C 370.97,30.12 370.41,17.43 363.86,13.43
             358.92,10.40 350.89,10.75 345.25,10.75
             345.25,10.75 345.25,38.25 345.25,38.25
             351.14,38.25 360.11,38.65 364.96,34.85 Z
           M 252.75,47.00
           C 252.75,47.00 276.50,47.00 276.50,47.00
             276.50,47.00 265.25,14.50 265.25,14.50
             261.29,19.98 254.00,40.11 252.75,47.00 Z
           M 12.12,50.25
           C 5.75,47.86 -0.23,44.86 1.07,36.24
             1.91,30.68 9.76,27.69 14.38,26.00
             14.38,26.00 57.88,3.25 57.88,3.25
             57.88,3.25 57.25,14.62 57.25,14.62
             57.25,14.62 45.38,21.38 45.38,21.38
             45.38,21.38 12.15,38.61 12.15,38.61
             12.15,38.61 44.75,54.88 44.75,54.88
             44.75,54.88 57.38,62.12 57.38,62.12
             57.38,62.12 58.12,73.38 58.12,73.38
             58.12,73.38 12.12,50.25 12.12,50.25 Z
           M 431.62,26.12
           C 436.42,27.81 445.21,33.13 443.43,40.06
             442.26,44.63 432.54,49.21 428.50,50.62
             428.50,50.62 383.12,72.38 383.12,72.38
             383.12,72.38 384.50,59.00 384.50,59.00
             384.50,59.00 398.88,52.00 398.88,52.00
             398.88,52.00 428.82,37.82 428.82,37.82
             428.82,37.82 399.75,23.38 399.75,23.38
             399.75,23.38 383.88,14.62 383.88,14.62
             383.88,14.62 382.62,3.50 382.62,3.50
             382.62,3.50 431.62,26.12 431.62,26.12 Z
           M 222.49,62.86
           C 229.31,58.61 229.31,46.64 222.49,42.39
             217.32,39.18 205.12,39.50 199.00,39.50
             199.00,39.50 199.00,65.75 199.00,65.75
             205.12,65.75 217.32,66.07 222.49,62.86 Z" />
</svg>
