<?xml version="1.0" encoding="UTF-8" standalone="no"?>
<!DOCTYPE svg PUBLIC "-//W3C//DTD SVG 20010904//EN"
              "http://www.w3.org/TR/2001/REC-SVG-20010904/DTD/svg10.dtd">

<svg xmlns="http://www.w3.org/2000/svg"
     width="11.1097in" height="8.33229in"
     viewBox="0 250 800 600">
  <path id="Selection"
        fill="white" stroke="white" stroke-width="1"
        d="M 276.00,271.00
           C 276.00,271.00 289.00,307.00 289.00,307.00
             289.00,307.00 298.80,282.00 298.80,282.00
             299.80,279.44 301.54,273.50 303.65,271.99
             305.39,270.75 308.90,271.00 311.00,271.00
             324.23,270.98 346.09,268.31 355.90,278.10
             359.99,282.19 360.99,285.85 363.00,291.00
             363.00,291.00 363.00,271.00 363.00,271.00
             369.35,271.00 388.14,270.19 393.00,272.23
             400.73,275.48 403.88,285.76 398.99,292.79
             397.62,294.77 395.94,295.71 394.00,297.00
             401.97,300.67 401.25,302.77 405.00,310.00
             405.00,310.00 419.00,271.00 419.00,271.00
             419.00,271.00 428.50,272.02 428.50,272.02
             428.50,272.02 433.95,283.00 433.95,283.00
             433.95,283.00 444.00,309.00 444.00,309.00
             444.00,309.00 444.00,271.00 444.00,271.00
             451.86,271.00 467.46,269.71 473.96,273.41
             476.72,274.99 477.98,276.67 480.00,279.00
             480.00,279.00 480.00,271.00 480.00,271.00
             488.53,271.00 505.19,269.31 511.81,274.65
             519.59,280.91 518.90,297.47 509.96,302.59
             504.21,305.88 495.54,305.00 489.00,305.00
             489.00,305.00 489.00,327.00 489.00,327.00
             489.00,327.00 480.00,327.00 480.00,327.00
             480.00,327.00 479.00,297.00 479.00,297.00
             473.33,306.97 462.88,305.00 453.00,305.00
             453.00,305.00 453.00,327.00 453.00,327.00
             450.72,327.00 445.10,327.23 443.22,326.40
             439.42,324.72 437.59,315.82 437.00,312.00
             437.00,312.00 420.00,312.00 420.00,312.00
             420.00,312.00 413.42,313.02 413.42,313.02
             413.42,313.02 406.49,325.98 406.49,325.98
             406.49,325.98 398.00,327.00 398.00,327.00
             398.00,327.00 399.00,323.00 399.00,323.00
             399.00,323.00 392.00,326.47 392.00,326.47
             392.00,326.47 363.00,327.00 363.00,327.00
             363.00,327.00 362.00,307.00 362.00,307.00
             359.88,326.96 341.23,327.00 326.00,327.00
             326.00,327.00 307.00,327.00 307.00,327.00
             307.00,327.00 307.00,299.00 307.00,299.00
             307.00,299.00 306.00,282.00 306.00,282.00
             306.00,282.00 294.00,316.00 294.00,316.00
             294.00,316.00 285.50,314.98 285.50,314.98
             285.50,314.98 280.58,305.00 280.58,305.00
             280.58,305.00 271.00,281.00 271.00,281.00
             271.00,281.00 271.00,327.00 271.00,327.00
             271.00,327.00 263.00,327.00 263.00,327.00
             263.00,327.00 263.00,271.00 263.00,271.00
             263.00,271.00 276.00,271.00 276.00,271.00 Z
           M 347.90,316.35
           C 356.39,309.77 356.39,288.23 347.90,281.65
             342.28,277.29 330.93,277.00 324.00,277.00
             324.00,277.00 324.00,321.00 324.00,321.00
             330.93,321.00 342.28,320.71 347.90,316.35 Z
           M 388.89,292.02
           C 393.94,288.93 393.94,282.07 388.89,278.98
             384.98,276.59 376.60,277.00 372.00,277.00
             372.00,277.00 372.00,294.00 372.00,294.00
             376.60,294.00 384.98,294.41 388.89,292.02 Z
           M 468.77,296.28
           C 473.58,292.50 473.13,282.34 467.89,279.14
             463.94,276.72 457.51,277.00 453.00,277.00
             453.00,277.00 453.00,299.00 453.00,299.00
             457.71,299.00 464.89,299.32 468.77,296.28 Z
           M 504.77,296.28
           C 509.58,292.50 509.13,282.34 503.89,279.14
             499.94,276.72 493.51,277.00 489.00,277.00
             489.00,277.00 489.00,299.00 489.00,299.00
             493.71,299.00 500.89,299.32 504.77,296.28 Z
           M 415.00,306.00
           C 415.00,306.00 434.00,306.00 434.00,306.00
             434.00,306.00 425.00,280.00 425.00,280.00
             421.83,284.38 416.00,300.49 415.00,306.00 Z
           M 224.00,310.58
           C 218.90,308.67 213.10,308.00 214.14,301.10
             214.81,296.65 221.31,295.40 225.00,294.05
             225.00,294.05 261.00,282.00 261.00,282.00
             261.00,282.00 259.40,289.16 259.40,289.16
             259.40,289.16 249.00,293.42 249.00,293.42
             249.00,293.42 223.00,303.00 223.00,303.00
             223.00,303.00 249.00,311.58 249.00,311.58
             249.00,311.58 259.40,315.84 259.40,315.84
             259.40,315.84 261.00,323.00 261.00,323.00
             261.00,323.00 224.00,310.58 224.00,310.58 Z
           M 558.00,295.34
           C 561.84,296.69 569.11,298.25 567.69,303.79
             566.75,307.45 559.23,309.21 556.00,310.34
             556.00,310.34 519.00,323.00 519.00,323.00
             519.00,323.00 520.60,315.81 520.60,315.81
             520.60,315.81 532.00,311.00 532.00,311.00
             532.00,311.00 556.00,302.00 556.00,302.00
             556.00,302.00 532.00,294.00 532.00,294.00
             532.00,294.00 520.60,289.19 520.60,289.19
             520.60,289.19 519.00,282.00 519.00,282.00
             519.00,282.00 558.00,295.34 558.00,295.34 Z
           M 390.79,318.69
           C 396.25,315.29 396.25,305.71 390.79,302.31
             386.66,299.74 376.90,300.00 372.00,300.00
             372.00,300.00 372.00,321.00 372.00,321.00
             376.90,321.00 386.66,321.26 390.79,318.69 Z
           M 399.00,322.00
           C 399.00,322.00 400.00,323.00 400.00,323.00
             400.00,323.00 400.00,322.00 400.00,322.00
             400.00,322.00 399.00,322.00 399.00,322.00 Z" />
</svg>
